name D:\school\WTK\thesis\model\3dpredictsim\Results\Batchsim_tmt_linear\Pog_s1_tmt_bCst_d00_k800_ig24_pas.mot
datacolumns 128
datarows 4
range 1.66397664 1.69725618
endheader
time	pelvis_tilt	pelvis_list	pelvis_rotation	pelvis_tx	pelvis_ty	pelvis_tz	hip_flexion_l	hip_adduction_l	hip_rotation_l	hip_flexion_r	hip_adduction_r	hip_rotation_r	knee_angle_l	knee_angle_r	ankle_angle_l	ankle_angle_r	subtalar_angle_l	subtalar_angle_r	tmt_angle_l	tmt_angle_r	mtp_angle_l	mtp_angle_r	lumbar_extension	lumbar_bending	lumbar_rotation	arm_flex_l	arm_add_l	arm_rot_l	arm_flex_r	arm_add_r	arm_rot_r	elbow_flex_l	elbow_flex_r	pro_sup_l	pro_sup_r	glut_med1_l/activation	glut_med2_l/activation	glut_med3_l/activation	glut_min1_l/activation	glut_min2_l/activation	glut_min3_l/activation	semimem_l/activation	semiten_l/activation	bifemlh_l/activation	bifemsh_l/activation	sar_l/activation	add_long_l/activation	add_brev_l/activation	add_mag1_l/activation	add_mag2_l/activation	add_mag3_l/activation	tfl_l/activation	pect_l/activation	grac_l/activation	glut_max1_l/activation	glut_max2_l/activation	glut_max3_l/activation	iliacus_l/activation	psoas_l/activation	quad_fem_l/activation	gem_l/activation	peri_l/activation	rect_fem_l/activation	vas_med_l/activation	vas_int_l/activation	vas_lat_l/activation	med_gas_l/activation	lat_gas_l/activation	soleus_l/activation	tib_post_l/activation	flex_dig_l/activation	flex_hal_l/activation	tib_ant_l/activation	per_brev_l/activation	per_long_l/activation	per_tert_l/activation	ext_dig_l/activation	ext_hal_l/activation	ercspn_l/activation	intobl_l/activation	extobl_l/activation	glut_med1_r/activation	glut_med2_r/activation	glut_med3_r/activation	glut_min1_r/activation	glut_min2_r/activation	glut_min3_r/activation	semimem_r/activation	semiten_r/activation	bifemlh_r/activation	bifemsh_r/activation	sar_r/activation	add_long_r/activation	add_brev_r/activation	add_mag1_r/activation	add_mag2_r/activation	add_mag3_r/activation	tfl_r/activation	pect_r/activation	grac_r/activation	glut_max1_r/activation	glut_max2_r/activation	glut_max3_r/activation	iliacus_r/activation	psoas_r/activation	quad_fem_r/activation	gem_r/activation	peri_r/activation	rect_fem_r/activation	vas_med_r/activation	vas_int_r/activation	vas_lat_r/activation	med_gas_r/activation	lat_gas_r/activation	soleus_r/activation	tib_post_r/activation	flex_dig_r/activation	flex_hal_r/activation	tib_ant_r/activation	per_brev_r/activation	per_long_r/activation	per_tert_r/activation	ext_dig_r/activation	ext_hal_r/activation	ercspn_r/activation	intobl_r/activation	extobl_r/activation	
          1.66397664	         -2.92284420	          2.51785922	         -6.25895396	          2.07997081	          0.85482097	          0.00315470	         31.92988347	          3.43119392	         -2.56320230	        -18.47763585	         -2.32338679	          7.73997243	        -15.26729671	         -8.53218391	          6.37627024	         -0.03085898	         -3.61687104	         11.68788875	          0.03994691	          1.25534376	         -0.10131232	         22.74696441	         -2.10527914	         -1.08743489	          2.13734119	        -10.10230235	        -13.55500241	          7.71481056	          8.57522439	        -13.47490104	         18.81981117	         12.98382110	         39.33104248	         86.51662706	         86.51662706	          0.05924426	          0.05924430	          0.05000019	          0.05924445	          0.05924442	          0.05924313	          0.05812668	          0.05000114	          0.29094026	          0.05000035	          0.05000069	          0.11677614	          0.26574812	          0.12063059	          0.11677779	          0.12747951	          0.05000026	          0.07016922	          0.07932589	          0.05000042	          0.05000037	          0.15879392	          0.05924466	          0.05525720	          0.33241528	          0.20990097	          0.13494672	          0.06108914	          0.18799718	          0.18525423	          0.16166934	          0.05000026	          0.05000023	          0.05172133	          0.05000002	          0.05000053	          0.05000045	          0.61764353	          0.36199290	          0.20703904	          0.37778696	          0.59160768	          0.33427019	          0.06014223	          0.08717110	          0.09077181	          0.24986321	          0.08596443	          0.05823132	          0.29179441	          0.19200036	          0.09509764	          0.05000206	          0.05000036	          0.05000028	          0.07119543	          0.09867456	          0.11677480	          0.12946392	          0.05000759	          0.05000550	          0.05000113	          0.30055511	          0.11630402	          0.05000770	          0.05000320	          0.05000179	          0.05000155	          0.36220509	          0.60479568	          0.05000063	          0.05000128	          0.05000030	          0.21131116	          0.11851196	          0.09146550	          0.06929554	          0.28727959	          0.38923449	          0.26542306	          0.24757473	          0.27260567	          0.34268794	          0.05000003	          0.06231603	          0.15715947	          0.05000016	          0.05000005	          0.05000019	          0.05000003	          0.05000055	          0.05000040	
          1.67506982	         -2.91118227	          2.62615090	         -6.51150940	          2.09710222	          0.85369230	          0.00291876	         31.26469464	          3.83202912	         -2.33226227	        -18.16388504	         -2.63801575	          7.53352506	        -15.54383329	        -10.84110248	          5.73319789	         -1.05434185	         -4.11525374	         12.75355775	          0.02447236	          1.17042632	         -0.06939869	         23.75120562	         -1.87509481	         -1.33660038	          2.22491441	        -11.28403508	        -13.54888295	          7.53959634	          8.28924177	        -13.49933681	         18.94313337	         12.94275031	         40.58808844	         86.51662706	         86.51662706	          0.05000004	          0.05000016	          0.13437639	          0.05000017	          0.05000018	          0.05000020	          0.05000014	          0.05000029	          0.24554283	          0.05000018	          0.05000253	          0.09855490	          0.22428187	          0.34211325	          0.23022682	          0.14121088	          0.05000116	          0.05922499	          0.08176590	          0.10401859	          0.11760850	          0.13401779	          0.05000048	          0.05924363	          0.43862181	          0.17714871	          0.11389010	          0.05924481	          0.20350561	          0.21784756	          0.18297536	          0.05000018	          0.05000092	          0.05000002	          0.05924435	          0.07019912	          0.07019771	          0.54420684	          0.39719407	          0.24530213	          0.31883836	          0.57602271	          0.28211174	          0.05075782	          0.07356918	          0.07660804	          0.21087535	          0.07255082	          0.05924339	          0.24626380	          0.16204125	          0.08025894	          0.05000544	          0.05000062	          0.05000128	          0.06008633	          0.08327788	          0.20745967	          0.22513759	          0.10616865	          0.05924600	          0.05924548	          0.25365761	          0.09815961	          0.05000246	          0.05003089	          0.05030782	          0.05924398	          0.30568771	          0.55035084	          0.05924417	          0.05924398	          0.05000307	          0.17833881	          0.13836587	          0.13836604	          0.13836588	          0.24245330	          0.32849947	          0.22400721	          0.20894397	          0.23006935	          0.28921610	          0.05000002	          0.05259253	          0.14417122	          0.05000011	          0.05000005	          0.05000014	          0.06590358	          0.05924438	          0.05000027	
          1.68616300	         -2.89545848	          2.73256024	         -6.72994413	          2.11444012	          0.85253277	          0.00269328	         30.42197418	          4.16202486	         -2.05852075	        -17.74537358	         -2.93144935	          7.31141376	        -16.03027495	        -13.31325401	          5.27669122	         -2.25365132	         -4.64494161	         13.73682536	         -0.01072477	          1.06077149	         -0.19680330	         24.52644395	         -1.63040947	         -1.58799706	          2.30134661	        -12.44397582	        -13.54810238	          7.43433747	          7.91480740	        -13.52602643	         18.98110397	         12.90955042	         41.82326789	         86.51662706	         86.51662706	          0.27957296	          0.29163996	          0.36765287	          0.37209761	          0.22965982	          0.18527586	          0.07623525	          0.08232275	          0.20722909	          0.08312099	          0.05000827	          0.08317677	          0.18928568	          0.28873107	          0.19430318	          0.15359930	          0.05000044	          0.05000585	          0.06901083	          0.22218307	          0.18250696	          0.12834173	          0.05000049	          0.05000028	          0.37018064	          0.14950718	          0.22537118	          0.05000048	          0.17175142	          0.18385612	          0.15442470	          0.05000119	          0.05000115	          0.05410993	          0.05000010	          0.05924560	          0.05924447	          0.60635435	          0.42399902	          0.20729592	          0.60842457	          0.64623798	          0.32380812	          0.07267827	          0.08392591	          0.06465436	          0.28402855	          0.06123023	          0.05000005	          0.34823833	          0.13675693	          0.06773563	          0.05000399	          0.05000024	          0.05000017	          0.05071079	          0.07028421	          0.17508850	          0.19000800	          0.08960254	          0.05000184	          0.05000120	          0.27856559	          0.08316722	          0.05000089	          0.05000112	          0.05000064	          0.05000042	          0.25798923	          0.50829591	          0.05000010	          0.05000046	          0.05000015	          0.15051135	          0.11677571	          0.11677585	          0.11677571	          0.20462158	          0.27724136	          0.18905376	          0.17634099	          0.19417015	          0.24408777	          0.05000490	          0.10730799	          0.16864293	          0.05000046	          0.14681272	          0.05000127	          0.08099573	          0.05000007	          0.05000009	
          1.69725618	         -2.87764611	          2.82685119	         -6.90818031	          2.13174371	          0.85138640	          0.00243539	         29.50805916	          4.47536595	         -1.78850051	        -17.20045006	         -3.19422110	          7.08555818	        -16.46934090	        -15.95683110	          4.97499931	         -3.52567832	         -5.19960997	         14.63540646	         -0.02216548	          0.87452283	         -0.20066449	         24.85742164	         -1.39436446	         -1.82904379	          2.36678687	        -13.52326867	        -13.54664646	          7.41113321	          7.49723089	        -13.55979739	         18.95973965	         12.84476846	         43.00037057	         86.51662706	         86.51662706	          0.40534634	          0.45192595	          0.51428534	          0.31405025	          0.23586924	          0.40894392	          0.07933390	          0.12227474	          0.17489369	          0.07016850	          0.05000044	          0.07019823	          0.15975041	          0.24368872	          0.25030585	          0.18693330	          0.05000033	          0.05896986	          0.13446755	          0.30067497	          0.23071519	          0.18449000	          0.05000020	          0.05000018	          0.31241881	          0.12617867	          0.26320471	          0.05000004	          0.22077646	          0.25434325	          0.20445582	          0.05000002	          0.05000005	          0.05000000	          0.05000002	          0.05000121	          0.05000028	          0.72040465	          0.35783947	          0.17495009	          0.65221676	          0.65849849	          0.45276903	          0.09608749	          0.07083037	          0.05456589	          0.23970962	          0.05167612	          0.05000014	          0.29390036	          0.11541787	          0.05716648	          0.05000376	          0.05000043	          0.05000062	          0.05000011	          0.05931746	          0.19608616	          0.20269986	          0.13630685	          0.05006561	          0.11680203	          0.23510010	          0.07019072	          0.05000073	          0.05000464	          0.05000352	          0.05000282	          0.21773336	          0.44054738	          0.05000028	          0.05000109	          0.05000023	          0.12702600	          0.09855459	          0.09855465	          0.09855452	          0.17269302	          0.23398142	          0.15955435	          0.14882532	          0.16387262	          0.20600120	          0.16306470	          0.12726159	          0.14232872	          0.24227239	          0.24307923	          0.11854938	          0.10964369	          0.05000004	          0.05000005	
